/* XPM */
static char *_624f3b91c3e4458ed0c4c88c9aadf05VXaNRMlkD3ELEae1[] = {
/* columns rows colors chars-per-pixel */
"32 320 11 1 ",
"  c #3A4466",
". c #2B314C",
"X c #353E5D",
"o c #303855",
"O c #262B44",
"+ c #22253C",
"@ c #1F1E33",
"# c #414C6D",
"$ c #526080",
"% c #1A1729",
"& c #4A5676",
/* pixels */
"%%%%@+++O+%%+.X        X.OOO++++",
"%%%%+++OO+%%+.X        X.OOOO+O+",
"%%%%@OO+O+%%+.X        X.OO+O++O",
"%%%%@O+OO+%%+.X        X.OOO+OOO",
"%%%%@OOOO+%%+.X        X.OOOO+O+",
"%%%%+OOOO+%%+.X        X.OOOOOOO",
"%%%%@OOOO+%%+.X        X.OOOOOOO",
"%%%%+OOOO+%%+.X        X.OOOOOOO",
"%%%%+OOOO+%%+.X        X.OOOOOOO",
"%%%@O..O.+%%+.X        X.OOO.O.O",
"%%%@O...O+%%+.X        X.OOO....",
"@@@@O....O%%+.X        X.OO.....",
"@@@+.....+%%+.X        X.OO.....",
"@+@+.oo..O%%+.X        X.OO...oo",
"+++O.ooo.O%%+.X        X.O..oooo",
"OOOOooXo.O%%+.X        X.O..oXoo",
"OOO.oXXooO%%+.X        X.O.ooXXX",
"...oXXXXoO%%+.X        X.O.oXXXX",
"oo.oX  XoO%%+.X        X.O.oX   ",
"oooX #  XO%%+.X        X.O.o #  ",
"XXXX### X.%%+.X        X.O.X ###",
" X  ####X.@%+.X        X.O.X####",
"## ##&&#X.@%+.X        X.OoX#&&#",
"####&&&# .@%+.X        X.OoX#&&&",
"#&#&&&&& .@%+.X        X..o &&&&",
"&&&&&$&& .@%+.X        X..o &$$&",
"&&&&$$$& .@%+.X        X..o &$$$",
"$$$$$$$&#o@%+.X        X..o#&$$$",
"$$$$$$$$#o@%+.X        X..X#&$$$",
"$$$$$$$&#o@%+.X        X..X#$$$$",
"$$$$$$$$#o@%+.X        X..X#$$$$",
"$$$$$$$$#o+@+.X        X..X#$$$$",
"$$$$$$$$#o+@+.X       XX..X#$$$$",
"$$$$$$$$#o+@+Oo        o.. &$$$$",
"$$$$$$$$#X+@+Oo       Xo.. &$$$$",
"$$$$$$$$#XO@+OoX       o.. &$$$$",
"$$$$$$$$#XO+@OoX      Xo.. &$$$$",
"$$$$$$$&#XO+++oX      XoO.#&$$$$",
"$$$$$$$&#X.+@+.X      XoO.#&$&$&",
"&&&&&&&&#X.+@+.X      ooOo#&&$&&",
"&$&$&$&&#X.O@+.X      X.Oo#&$&&&",
"&&&&&&&##XoO@+.o  #   o.Oo#$&&&&",
"&&&&&&&##XoO@@.o      o.Oo#$&&&&",
"&#&###&#  o.@@Oo      o.Oo&$&&#&",
"##&#&#### o.@@OoX    Xo.Oo&$&###",
"########  X.@@OoX    Xo.Oo&$&###",
"########  X.@@OoX     oOOo&$&###",
"########   .@@+.X    X.OOo&$&# #",
"          Xo@%+.X    X.OOo&$# # ",
" # # # #   o@%+.X    X.OOo&$#   ",
"           o@%+.X    X.OOo&$#   ",
"           o@%+.X  X o.+Oo&$#   ",
"           o@%+.X    o.+Oo&$#   ",
"           o+%@OoXXXXoO+Oo&$#   ",
"          #o+%@OoXXXXoO++o&$#   ",
"           X+%@OoXXXXoO++o&&#   ",
"           X+%@OoXoXX.+++o&&#   ",
"  X  X     X+@@+.oXooo+++o&&#   ",
"           X+@@+.oooo.+@+o#&#   ",
"           XO@@+.oooo.+@+o#&#   ",
"   X  X   #XO@@@.o.o..+@+o#&#   ",
"           XO@%+O.o.oO@@+o#&#   ",
"           XO@%@O....O@@+o###   ",
"  X  X     XO@%@O....O@@+o #    ",
"           XO@%@O....O@@+. #    ",
"           XO@%@O....O@@+. #    ",
"           X.+%@O..O.+@@+. #    ",
"           X.+%@O.O..O@%+. #    ",
"           X.+%@O..O.+@%+.X     ",
"           X.+%@O....O@@+.X     ",
"           X.+@@O....O@%+.X     ",
"           X.+@@O....O@@+.X     ",
"           X.+@@O..o.O@@+.X     ",
"           X.+@+.oo.o.+@+Oo     ",
"           X.+@+.oooo.+@+OoX    ",
"           X.+@+.oooX.+@+OoX    ",
"           X.O++oXXXXoO@@OoX    ",
"           X.O+OoXXXXoO+@+.X    ",
"           X.O+OX    X.+@+.X    ",
"           X.OO.X # #X.+@+.X    ",
"           X.OO. ####X.O@+.o    ",
"           X.OOo #### oO@@.o    ",
"           X.O.o#&&&&#oO@@Oo    ",
"           X.O.X#&&&&#XO@@Oo    ",
"           X.O.X#&&&&#X.@@OoX   ",
"           X.OoX&$$&$& .@@OoX   ",
"           X.Oo &$$$$& .@@+oX   ",
"           X..o &$$$$& .@@O.X   ",
"           X..o#&$$$$&#o@@+.X   ",
"           X..X#$$$$$$#o@@+.X   ",
"           X..X#$$$$$$#o@@+.X   ",
"           X..X#$$$$$$#o+@+.X   ",
"           X..X#$$$$$$#o+@+.X   ",
"           X.. &$$$$$$#o+@+Oo   ",
"           X.. &$$$$$$#X+@+Oo   ",
"           X.. &$$$$$$#XO@+OoX  ",
"           X..#&$$$$$$#XO@@OoX  ",
"           X..#&$$$$$&#XO+@+oX  ",
"           X..#&$&$&$&#X.+@+.X  ",
"           X.o#&$&&$&&#X.+@+.X  ",
"           X.o#$&&&&&&#X.O@+.X  ",
" #         X.o#$&&&&&&#XoO@@.o  ",
"           X.o#$&&&&&## oO@@.o  ",
"           X.o&$&&##&#  oO@@Oo  ",
"           X.o&$&##&### X.@@Oo  ",
"           X.o&$&#####  X.@@OoX ",
"           X.o&$&#####  X.@@OoX ",
"           X.o&$& ## #  X.@@+.X ",
"           X.o&$#  #     o@%+.X ",
"           X.o&$#   #    o@%+.X ",
" X         o.o&$#        o@%+.X ",
"X  X       X.o&$#        o@%+.oX",
"XXX        o.o&$#        o@%+.oX",
"X XX       o.o&$#        o+%+OoX",
"XXX       Xo.o&$#        X+%@Ooo",
"XXXX      Xo.o&&#       #o+%@O.o",
"XoXX      XoOo&&#        X+@@+..",
"oooX      XoOo#&# X      X+@@+O.",
"oooX      XoOo#&#        X+@@+O.",
"oooo      ooOo#&# X      XO@@@OO",
"o.oo      X.Oo#&#        XO@@@+O",
".o.o      o.O.#&         XO@@@++",
"...oX  #  o.O.##   X     XO@@@@+",
"...oX     o.O. #         XO@@@@@",
"...oX    Xo.O. #         XO@@%@@",
"..OoX    Xo.O. #         XO+@%@@",
".O..X     oOO. #         X.+%%@@",
"..OoX    X.OO. #         X.+%%%@",
".OO.X    X.OO.X          X.+%%%@",
"....X    X.OO.X          X.+%%%@",
".OO.X    X.OO.X          X.+%%%@",
"....X  X o.OO.X          X.+%%%@",
"....X X XX.+O.X          X.+%%@@",
"o...XXXX oO+O.X          X.+%%@+",
"oo..XXXXXoO+O.X          X.+%%@+",
"oo..oXXXXoO++.X          X.+%%+O",
"Xo.ooXXXXoO++.X           .+%%+O",
"XXoooooXX.O++.X          X.+%%O.",
" XooooXoX.+++.X          X.+%%Oo",
"  ooooooo.+@+.X         #X.+%%.o",
"# Xoooooo.+@+.X          X.+%@.X",
"##Xoo.ooo.+@+.X          X.+%@o ",
"&#Xoo..oo.@@+.X           .+%@o#",
"&# o..o..O@@+.X          X.+%@X#",
"&& o....oO@@+.X           .+%@X&",
"$& o.....O@@+.X          X.+%+ &",
"$& X.....O@@+.X          X.+%+ $",
"$&#X.OO.OO@%+.X          X.+%+#$",
"$$#X.O.OO+@%+.X          X.+%+#$",
"$&#X.OOOO+%%+.X          X.+%O#$",
"$$#X.OOOO+%@+.X          X.+@O#$",
"$$#X.OOOO+%%+.X  X       X.+@O#$",
"$$#X.OO+++%%+.X         XX.+@.&$",
"$$#X.O+O++%%+.XXXX       X.++.&$",
"$$#XoO+++@%%+.oXX       Xo.O+.&$",
"$&#XoO+++@%%+.oXXX      Xo.OOo&$",
"$&#Xo.+++@%%+.oXXX      Xo.OOo&$",
"$&#Xo.+@@@%%+.oooX      Xo.O.X&$",
"$&# o.+@+@%%+.oooX      Xo.O.X&$",
"&&# o.+@@@%%+Ooooo      ooO.o &$",
"&&# X.+@@%%%+O.ooo      o.O.o &&",
"&&  X.+@@%%%+O.o.o  #  XX.O.X#&&",
"&## X.+%@%%%+O...oX     o.O.X#&&",
"&## X.+%%%%%+O...oX    Xo.O. #&&",
"##  X.@%%%%%+O...oX   #Xo.O. &##",
"##  Xo@%%%%%+O...oX    XoOOo#&##",
"##   o@%%%%%+O.O..X    XoOOo#&##",
" #   o@%%%%%+OO.OoX    X.OOo#&##",
"#    o@%%%%%+O.OO.X    X.OOo&&# ",
"     o@%%%%@+OOO..X    X.OOo&$# ",
"     o@%%%%%+O.O..X    X.OOo&$# ",
"     X@%%%%@+OO.O.X X XX.O+o&$# ",
"     o+%%%%%O..O..X    X.O+o&$# ",
"     o+%%%%@O.....XXXXXo.O+o&$# ",
"     X+%%%%@O..O..XXXX o.++.&$# ",
"     o+%%%%@O.....oXXXXo.++.&$# ",
"    #X+%%%%@O....ooXXXXo.++.&&# ",
"     X+%%%%+......ooooXo.++.#&# ",
"     X+%%%%+.o.o.oooXoooO++.#&# ",
"     XO%%%%+.oo.oooooooo.+@O#&# ",
"     XO@%%@+.oooo.ooooo.O+@O#&# ",
"     XO@%%@+.ooooo.o.o.oO+@O &# ",
"     XO@%%@Oooooooo...o.O+@O &# ",
"     XO@%%@OoXXXXo.......+@+ #  ",
"     XO@%%@OoXXXXo......O+@+ #  ",
"     XO@%%@OoXXXXX......O+@+X#  ",
"     X.@%%@OoXXXXX..O..OO+@+X#  ",
"     X.+%%+.X    X.O.O.OO+%+X#  ",
"     X.+%%+.X  X X.O.O.OO+%+X#  ",
"     X.+%%+.X    X.O.OO.O+%@o   ",
"     X.+%@+.X    X.OO.OOO+%@o   ",
"     X.+%%+.X  #  .O.OOOO+%@o   ",
"     X.+%@+o #### oO.O.OO+%@o   ",
"     X.+@@Oo #### o..OOOO+%@o   ",
"     X.+@@Oo #### o.O.OOO+%@o   ",
"     X.+@@Oo #&#& o...OOO+%@o   ",
"     X.+@@Oo#&#&& o...OOO+%@o   ",
"     X.+@@OX#&&&&#o...OOO+%@o   ",
"     X.+@+.X#&&&&#X.o.OOO+%@o   ",
"     X.+@+.X#&&&&#X.o.OOO+%@o   ",
"     X.+@+.X&&$&$#Xoo.OOO+%@o   ",
"     X.+++. &$$$$&XoooOOO+%@o   ",
"     X.+++o &$$&$& oooOOO+%@o   ",
"     X.O+Oo &$$$$& oooOOO+%@o   ",
"     X.O+Oo &$$$$& XXo.OO+%@o   ",
"     X.O+Oo &$$$$& XXo.OO+%@o   ",
"     X.O+Oo#&$$$$$ XXo.OO+%@o   ",
"     X.O+Oo#$$$$$&#X X.OO+%@o   ",
"     X.OO.X#$$$$$$#  X.OO+%@o   ",
"     X.OO.X#$$$$$$#  X.OO+%@o   ",
"     X.OO.X#$$$$$$#  X.OO+%@o   ",
"     X.OO.X#$$$$$$#   .OO+%@o   ",
"     X.OOo #$$$$$$&## oOO+%@o   ",
"     X.OOo &$$$$$$### oOO+%@o   ",
"     X.O.o &$$$$$$&## o.O+%@o   ",
"     X.O.o &$$$$$$&#& o.O+%@o   ",
"     X.O.o#&$$$$$$&#&#o.O+%@o   ",
"     X.O.X#&&$$$$&&&&#X.O+%@o   ",
"     X.O.X#&$&&&$&&&&#X.O+%@o   ",
"     X.O.X#&&&$&&$&&&#X.O+%@o   ",
"     X.O.X&&&&&&&&&$$#X.O+%@o   ",
"     X.Oo &$&&&&&&$&$&X.O+%@o   ",
"     X.Oo &$&&#&#&&$$& oO+%@o   ",
"     X.Oo &$&##&#&$$$& o.+%@o   ",
"     X..o &$&####&$$$& o.+%@o   ",
"     X..o &$&#####$$$& o.+%@o   ",
"     X..o#&$& ###&$$$$ o.+%@o   ",
"     X..o#$$### ##$$$$#X.+%@o   ",
"     X..X#$$#  # #$$$$#X.+%@o   ",
"     X..X#$$#    #$$$$#X.+%@o   ",
"     X..X#$$#    #$$$$#X.+%@o   ",
"     X..X#$$#    #$$$$#X.+%@o   ",
"     X..X#$$#    #$$$$& o+%@o   ",
"     X..X#$$#    #&$$$# o+%@o   ",
"     X..X#$&#    #&$$$& oO%@o   ",
"     X..X#&&#    #&$$$& oO%@o   ",
"     X..X#&&#   X#&$$$&#oO%@o   ",
"     X..X#&&# X  #&$$&&#XO%@o   ",
"     X..X#&&#   X#&$&$&#XO%@o   ",
"     X..X#&&  X   &&&&&#XO%@o   ",
"     X..X#&&#     &&&$&& .@@o   ",
"     X..X#&&     ##&&&&&X.@@o   ",
"     X..X###    X #&&&$& .@@o   ",
"     X..X###      #&#&$& .@@o   ",
"     X..X###      ###&$& .@@o   ",
"     X..X ##      ####$& .@@o   ",
"     X..X ##      ###&$$#.@@o   ",
"     X..X ##      # ##$&#o@@o   ",
"     X..X          # #$$#o@@o   ",
"     X..X #          #$$#o@@o   ",
"     X..X           ##$$#o@@o   ",
"     X..X            #$$#o@@o   ",
"     X..X            #$$#o@@o   ",
"     X..X            #$$#o@@o   ",
"     X..X            #&$#o@@o   ",
"     X..X            #&&#o@@o   ",
"     X..X           X#&$#o@@o   ",
"     X..X            #&&#o@@o   ",
"     X..X          X  &&#o@@o   ",
"     X..X            #&&#o@@o   ",
"     X..X           X &&#o@@o   ",
"     X..X            ##&#o@@o   ",
"      ..X             ###o@@o   ",
"     X..X          X ####o@@o   ",
"     X..X             ###o@@o   ",
"     X..X             ###o@@o   ",
"     X..X             ## o@@o   ",
"     X..X              # o@@o   ",
"     X..X             #  o@@o   ",
"     X..X              # o@@o   ",
"     X..X                o@@o   ",
"     o..X                o@@o   ",
"     oO.X               #o@@o   ",
"     oOOX                o@@.   ",
"    XoOOX                o@@.   ",
"    XoOOX                o@@.X  ",
"    XoOOX                o@@.X  ",
"    XoOOX                o@@.X  ",
"    X.+OX                o@@.X  ",
"    X.++X                o@%.X  ",
"    o.++X                o@%.X  ",
"    o.++o                o@%Oo  ",
"    o.@+o                o@%Oo  ",
"    oO@+o                o@%Oo  ",
"   XoO@+o                o@%Oo  ",
"   XoO@+o                o@%OoX ",
"    oO@+o                o@%+oX ",
"   X.+@@o                o@%+.X ",
"   X.+%@o                o@%+.X ",
"   X.+%@o                o@%+.X ",
"   X.+%@o                o@%+.X ",
"X XX.+%@o                X@%+.X ",
"X  o.+%@o                o@%+.X ",
"XXXXO@%@o                o+%+OoX",
"XXXoO@%@o                X+%@OoX",
"XXXoO@%@o                o+@@OoX",
"XXXoO@%@o                X+@@OoX",
"oXooO@%@o                o+@@+oX",
"ooo.+@%@o                X+@@+.o",
"ooo.+%%@o                XO@@+.o",
"ooo.+%%@o                XO@@+.o",
"o.o.+%%@o                XO@@+.o",
".o..@%%@o                XO@@@.o",
"...O@%%@o                XO@@@O.",
"...O@%%@o                XO@@@O.",
"...O@%%@o                X.+%@O.",
"...O@%%@o                X.+%@O.",
"O.OO@%%@o                X.+%@O.",
"OO.O@%%@o                X.+%@+O",
"O.O+@%%@o                X.+%%OO",
"OOO+%%%@o                X.+%@+O",
"OOO+%%%@o                X.+%%+O",
"OOOO%%%@o                X.+%%+O",
"OOO+%%%@o                X.+%%+O",
"OOO+%%%@o                X.+%%+O",
"OOO+%%%@o                X.+%%+O",
"OOO+%%%@o                X.+%%+O",
"OOO+%%%@o                X.+%%+O",
"OOO+%%%@o                 .+%%+O",
"O+O+%%%@o                X.+%%+O"
};
