/* XPM */
static char *_038f682dfcd4c9e8fc4c8a672a86523lKMOELhAIu2yxb5p[] = {
/* columns rows colors chars-per-pixel */
"32 320 7 1 ",
"  c #3A4466",
". c #282E47",
"X c #2D334F",
"o c #343C5B",
"O c #435070",
"+ c #3E4969",
"@ c #242840",
/* pixels */
" +OOO+XX+OOOOOOO++OOO+XX+OOO+   ",
" +OOO+XX+OOOOOOO++OOO+XX+OOO+   ",
" +OOO+XX+OOOOOOO++OOO+XX+OOO+   ",
" +OOO+XX+OOOOOOO++OOO+XX+OOO+   ",
" +OOO+XX+OOOOOOO++OOO+XX+OOO+   ",
" +OOO+XX+OOOOOOO +OOO+XX+OOO+   ",
" +OOO+XX+OOOOOOO++OOO+XX+OOO+   ",
" +OOO+XX+OOOOOOO++OOO+XX+OOO+   ",
" +OOO+XX+OOOOOOO+ OOO+XX+OOO+   ",
" +OOO+XX+OOOOOOO +OOO+XX+OOO+   ",
" +OOO+XX OOOOOOO++OOO+XX OOO+   ",
"  OOO XX+OOOOOOO+ OOO+XX+OOO+   ",
" +OOO+XX OOOOOOO +OOO+XX OOO    ",
"  OOO XX OOOOOOO+ OOO+XX OOO+   ",
" ++OO XX OOOOOO+  +OO+XX OOO    ",
" ++OO XX OOOOOOO  OOO+XX OO++   ",
"  OOO XX OOO+OO+ ++OO+XX OO+    ",
"  +OO XX OO+OO+O  +OO+XX OOO    ",
"  +O+ XX O+O+O++ ++OO+XX O++    ",
" ++OO X. O++O+O+  +OO+XX O++    ",
"  +++ XX +O++O+++ +OO+XX +O++   ",
"  ++OoX. +++++++  +OO+X. +++    ",
"  +++ XX +O+++++  ++O+XX +++    ",
"  +++oX. +++++++  +OO+X. +++    ",
"  +++ XXo+++++++  ++O+XXo+++    ",
"   ++oXXo+++++ +   +O+XXo++     ",
"  +++oX.o+ + ++    +O+XXo++     ",
"    +oXXo+  +     ++O+X.o+      ",
"   + oXXo +   +    +O+X.o +     ",
"    +oXXo   +      +O+X.o       ",
"     oX.o          +O+X.o       ",
"    +o.Xo +        +O+X.o       ",
"     o..o          +O+X.o       ",
"    +oXXo          +O+X.o       ",
"     oX.o          +O+X.o       ",
"    +oXXo          +O+X.o       ",
"     oX.o          +O+X.o       ",
"    +oXXo          +O+X.o       ",
"     oX.o          +O+X.o     + ",
"    +oXXo          +O+X.o   +   ",
"     oXXo +     +  +O+X.o +     ",
"    +oXXo          +O+X.o       ",
"     oX.o    +  +  +O+X.o +     ",
"    +oXXo +        +O+X.o       ",
"     oXXo          +O+X.o    +  ",
"    +oXXo          +O+..o +     ",
"     oX.o          +O+..o       ",
"     o..o          +O ..o       ",
"     o.Xo          +O ..o       ",
"     o..o           O ..o       ",
"     o.Xo    o   o  O ..o       ",
" o o o..o  o  o o   + .@o o o o ",
" o  oo..o o o  o oo + ..o  o o o",
"o oooo..oooo oo o o +o.@oooo o o",
"ooo oo..ooo oooooooo o.@Xo ooooo",
"oooooX..Xooooooo ooo o.@Xooooooo",
"oooooX..Xooooooooooooo.@Xooooooo",
"oooooX..XoooooooooXooo@@Xooooooo",
"oXoXXX.@XXoXXoXoXoXooX@@XXoXoXoX",
"ooXoXX@@XXXXoXoXoXXXoX@@.XXoXXoX",
"XXXXX.@@XXXoXXXXoXXXXX@@.XXXXXXX",
"XoXXX.@@.XXXXXXXXXXXXX@@.XXXoXXX",
"XXXXX.@@.XXXXXXXXXXXX.@@.XXXXXXX",
"XXXX..@@..XXXXXXXX..X.@@...XXXXX",
"XX....@@...X.X.XX.....@@@..X.X.X",
"..X..@@@@...X.X.X.....@@@.....X.",
".X...@@@@..X.......@.@@@@..X.X..",
".....@@@@......X...@.@@@@.......",
"....@@@@@....X....@.@.@@@.......",
".....@@@@@.........@@@@@@@......",
".....@@@@@..X....@@.@.@@@...X...",
"@....@@@@....X.....@.@@.@.....X.",
"......@@@..X..X..@.....@...X.X.X",
"@..X.......XXXX...@........XXXXX",
"@.XX...@..XXXXXX.@........XXXX.X",
"@.XXX.....XXXXX.....X.XX.XXXXXXX",
"@.XXXX....XXXoXX...XXXXXXXXXoXXX",
"@.XoXXXX.XXooXoX..XXXXXXXXoXoXoX",
"@.XoXXXXXXoXoooX..XXoXoXoXoooooo",
"@.XoooXXXXoooooX..XooXooXooooooo",
"@.ooooXXXooooooo..Xooooooooooooo",
"@.ooooooXXo o oo..ooooooooo oo o",
"@Xo  ooXooo    o..oo o o  o   o ",
"@Xo  ooooo     o..o      o+     ",
"@Xo+  oooo ++++oX.o      + +++  ",
"@. ++ oooo ++++oXXo+++++++++++++",
"@X +++ oo ++++O X. +++++++++++++",
"@X OO+ oo +O+O+ XX O+++++++O+O+O",
"@X O++    +OOOO XX OOOOOOOO+OOO+",
"@X OO+ o  +O+OO XX OO+O+O+OOOOOO",
"@X OO+    OOOOO XX OOOOOOOOOOOOO",
"@X OOO    OOOOO XX OOOOOOOOOOOOO",
"@X OOO+  +OOOOO+XX OOOOOOOOOOOOO",
"@X OO++   OOOOO XX OOOOOOOOOOOOO",
"@X OOO+  +OOOOO XX OOOOOOOOOOOOO",
"@X OOO+   OOOOO XX OOOOOOOOOOOOO",
"@X OOO   +OOOOO XX OOOOOOOOOOOOO",
"@X OOO+  ++OOOO XX OOOOOOOOOOOOO",
"@X OO++  ++OOOO XX OOOOO+OO+OOOO",
"@X OO++  +O+O+O XX OO+O+OO+OOOOO",
"@X OO++  ++O+OO XX OO+O+O+O+OOOO",
"@X O+++   ++O++ XX O+O+O+O+++OOO",
"@X +O+  +++++O+ XXo+O++++++O+OOO",
"@X ++++   ++++OoXX ++++++++++OOO",
"@X +++    +++++ X. +++++++++++OO",
"@Xo+++    +++++oXXo+++++++++ OOO",
"@Xo++     + + +oX. ++ ++ + + +OO",
"@Xo+++     + ++oXXo+ +  + + ++OO",
"@Xo          + oX.o +  +     +OO",
"@Xo +      +  +o.Xo        + +OO",
"@Xo             ..o +  +     +OO",
"@Xo          + o.Xo          +OO",
"@Xo            o..o          +OO",
"@Xo           +o.Xo          +OO",
"@Xo            o..o          +OO",
"@Xo           +o.Xo          +OO",
"@Xo            o..o          +OO",
"@Xo           +o..o          +OO",
"@Xo    +       o..o          +OO",
"@Xo +         +o..o +        +OO",
"@Xo    + +   + o..o          +OO",
"@Xo +         +o..o  + +     +OO",
"@Xo    +  +  + o..o +        +OO",
"@Xo +   +     +o..o     +    +OO",
"@Xo            o..o +        +OO",
"@Xo           +o..o          +OO",
"@Xo            o..o          +OO",
"@Xo            o..o          +OO",
"@Xo            o..o           OO",
"@.o            o..o           OO",
"@Xo   o   o    o..o  o o   o  +O",
"@.o  o   o  o oo.@o o   o o   +O",
"@.o o o o o o oo..o  oo  o oo ++",
"@.oo o o o ooo X.@oooo ooo o o++",
"@.oooooooooooooX@@Xooooo oooo  +",
"@.Xooooooooooooo@.Xooooooooooo  ",
"@.XooooooooooooX@@Xoooooooooooo ",
"@.XooooooooooXoX@@XooXoXooooXooo",
"@.XXoXooXoXoXXo.@@XXXXoXoXoXoooo",
"@@XXXoXoXoXoXXXX@@.XXXXXXXoXXXoo",
"@@.XXXoXXXoXXXX.@@.XXXXoXXXXXXXo",
"@@.XXXXoXXXXXXX.@@.XXXXXXXXXXXXX",
"@@.XXXXXXXXXX...@@....XXXXXXXXXX",
"@@..XXXXXXXX....@@......XXXX..XX",
"@@@..X.XX.X.....@@@......X......",
"@@@...X..X.....@@@@.......X.....",
"@@@....X..X..@.@@@@.@.@..X......",
"@@@..X.......@@@@@@@@@@......@..",
"@@@.........@@.@@@@.@.@@....@@@@",
"@@@@.........@@@@@@@@@@@.X...@.@",
"@@@.........@@@@@@@.@@@@....@@@@",
"@.@..........@.@.@.@.@@@.X....@@",
".......@....@.@@.....@@@.XX..@@.",
"....X.....X..@.......@@@.XX.....",
"....XX...X.....@......@@.XXX.@.@",
"XX.XX.....XX.....X.X..@@XXXX....",
"XXXXXX...XX....XXXXXX.@@XXXXX...",
"XXXXXX..XXXXXX.XXXXXX.@@XooXX...",
"oXoXoX..XXXXX.XXXoXoXX@@XooXXXXX",
"XooooX..XoXXXXXXXooXoX@@XoooXXXX",
"oooooo..XooXXXXooooooX@.XoooXXXX",
"oooooo..XoooXoXooooooo@@o  ooXXX",
" o   o..XooXoXooo o oo@.o  ooooo",
"  o  o..Xoooooooo    o..o   ooXo",
" + + oX.oooooooo     o..o++ oooo",
"+++++oX.oo ooooo ++++o..o++ oooo",
"+++++ X.ooo ooo +++++o..o+++ ooo",
"+++O+ X.o  o  o +++O+ .. OO+ o o",
"OO+OO X.o  o o  +OO+Oo.. OO+    ",
"+OOOO X.o       +OOOO .. OO+  o ",
"OOOOO X.o    o  OOOOO .. OO+    ",
"OOOOO+X.o       OOOOO .. OOO    ",
"OOOOO+X.o      +OOOOO+.. OOO+   ",
"OOOOO+X.o       OOOOO+.. OO++   ",
"OOOOO+X.o      +OOOOO+.X OOO+   ",
"OOOOO+X.o       OOOOO+.. OOO+   ",
"OOOOO+X.o +    +OOOOO+X. OOO    ",
"OOOOO+XXo       OOOOO+X. OO++   ",
"OOOOO+XXo +    ++OOOO+X. OO++   ",
"O+OOO+XXo    +  O+OOO+X. OO++   ",
"+O+OO+XXo +    ++O+OO+X. O+++   ",
"+O+OO+XXo   +  ++O+OO+X. O++    ",
"+++OO+XXo +    ++++OO+X. +O++   ",
"+++OO+X.o   +   +++OO+X. +++    ",
"++++O+X.o      +++++O+X.o+++    ",
"+++OO+X.o        ++OO+X.o+++    ",
"+  +O+X.o       + ++O+X.o++     ",
" +++O+X.o        + +O+X.o++     ",
"   +O+X.o          +O+X.o       ",
"+  +O+X.o       + ++O+X.o +     ",
"   +O+X.o          +O+X.o       ",
"   +O+X.o          +O+X.o       ",
"   +O+X.o          +O+X.o       ",
"   +O+X.o          +O+X.o       ",
"   +O+X.o          +O+X.o       ",
"   +O+X.o          +O+X.o       ",
"   +O+X.o  +       +O+XXo       ",
"   +O+X.o          +O+XXo       ",
"   +O+X.o +  +     +O+XXo    +  ",
"   +O+X.o          +O+XXo  +    ",
"   +O+X.o +  +     +O+XXo +     ",
"   +O+X.o     +    +O+XXo       ",
"   +O+X.o +        +O+XXo +     ",
"   +O+X.o    +  +  +O+XXo       ",
"   +O+X.o +        +O+XXo  +    ",
"   +O+..o   +      +O+X.o       ",
"   +O+..o          +O+X.o       ",
"   +O ..o          +O+X.o       ",
"   +O ..o          +O+X.o       ",
"    O ..o           O X.o       ",
" o  O ..o  o o   o  O X.o  o o  ",
"    + .@o o   o o   + X.o o   o ",
"ooo + ..o  ooo  o o + X.o  ooo o",
"o o + ..Xoo o oo oo + X.oooo ooo",
"ooo  o.@Xooooooooooo o..oooooooo",
"oooo o.@Xooooooo ooo o..Xooooooo",
"oooo o.@Xooooooooooo o..Xooooooo",
"XoXooo.@XoXoXXooooXooo..XoXoXoXo",
"XoXooo@@XXXXXoXooXoooX..XXXXXXXX",
"XXXXoX@@.XoXXXXXoXXXoX.@XXoXXoXX",
"XXXooX@@.XXXXXXoXXXXXX.@.XXXXXXX",
"XXXXXX@@.XX.XXXXXXXXXX@@.XXX.X.X",
"X..XXX@@...X.XXXXXXXXX@@....X...",
"...XXX@@......XXXX..X.@@.X......",
"....XX@@.......XX.....@@........",
"....X.@@@..@..........@@@.@..@..",
".@....@@@.@....X.....@@@@..@..@.",
"@@@...@@@@@@@......@.@@@@@@@@@@@",
"@@@...@@@@.@@.....@@@.@@@.@.@.@.",
"@@@@..@@@@@.@@.....@.@@@@@@@@@@@",
"@@@...@@@.@@@.....@@@@@@@@.@.@.@",
"@@@...@@.@@.@....@.@..@@@.@@@.@@",
"@@@....@.............@.@.@...@..",
"@@@.....@.....X...@....@.@......",
"@@@...........XX.@..............",
"@@...X...X.X.XX.....X.......X.X.",
"@@..XX.XXXXXXXXX...XXX....XXXXXX",
"@@.XXXXXXXXXXXoX..XXXXXX.XXXXXXX",
"@@.XXXXXXXoXXoXX..XXoXXXXXXXoXXo",
"@..XXXXXooXooooo..XooXXXXXooXooo",
"@@XXoXoXoooooooX..XoooXXXXoooooo",
"@.XoXoXooooooooo..ooooooXooooooo",
"@.XoooXooo o o o..o oooXoooo o o",
"@.Xoooooo      o..o  oooooo     ",
"@.Xooooo+    ++oX.o   oooo      ",
"@.oooooo ++++++oXXo++ oooo +++++",
"@.oo o  +++++++ X. +++ oo ++++++",
"@.o o o +++++O+ XX O++ oo ++++++",
"@Xo   o +OOO+OO XX OO+    +OOOO+",
"@.o     +O+OOOO XX OO+ o  +OO+OO",
"@Xo     OOOOOOO XX OO+    +OOOOO",
"@Xo     +OOOOOO+XX OOO    OOOOOO",
"@Xo    +OOOOOOO+XX OOO+  +OOOOOO",
"@Xo     OOOOOOO+XX OO++   OOOOOO",
"@Xo    +OOOOOOO+XX OOO+  +OOOOOO",
"@Xo     OOOOOOO+XX OOO+   OOOOOO",
"@Xo +  +OOOOOOO+XX OOO   +OOOOOO",
"@Xo     OOOOOOO+XX OOO+   OOOOOO",
"@Xo +  ++OOOOOO+XX OO++  ++OOOOO",
"@Xo     O+O+OOO+XX OO++  ++O+O+O",
"@Xo + +++OO++OO+XX OO++  ++OO+++",
"@Xo    +++O+OOO+XX O+++  ++++O+O",
"@Xo    ++++++OO+XXo+O+    +O++++",
"@Xo +   +++++OO+XX +++   +++++++",
"@Xo    +++++++O+XXo+++    ++++++",
"@Xo     +++++OO+XXo+++    ++++++",
"@Xo      + + +O+XXo++ +    ++ ++",
"@Xo     + + ++O+XXo++     + + + ",
"@Xo          +O+X.o             ",
"@Xo     +  + +O+X.o +      +  + ",
"@Xo          +O+X.o             ",
"@Xo          +O+X.o             ",
"@.o          +O+X.o             ",
"@Xo          +O+X.o             ",
"@.o          +O+X.o             ",
"@Xo          +O+X.o             ",
"@.o          +O+X.o             ",
"@Xo  +       +O+X.o             ",
"@.o +        +O+X.o   +  +      ",
"@Xo    +     +O+X.o +           ",
"@.o +        +O+X.o    +        ",
"@.o   +  +   +O+X.o +           ",
"@.o +        +O+X.o   +  +     +",
"@.o    +  +  +O+X.o +           ",
"@.o +        +O+X.o    +    +   ",
"@.o          +O+..o             ",
"@.o          +O+..o             ",
"@.o          +O ..o             ",
"@.o          +O ..o             ",
"@.o           O ..o             ",
"@.o    o  o   O ..o  o o  o o o ",
"@.o o o  o  o + .@o o   o  o    ",
"@@o  o o o oo + ..o  oo o o oooo",
"@@ooo o o ooo +o.@oooo oo o o o ",
"@.Xooooooooooo o..Xooooooooooooo",
"@.Xo ooooooooo o.@Xoooooo oooooo",
"@@Xooooooooooo o.@Xooooooooooooo",
"@@XoooooooXoXooo.@XooXoXooooXoXo",
"@@XoXoXooXoXoXoX.@XXXoXoXoXoXoXX",
"@@XXoXoXXoXXXooX@@XoXXXXoXooXXXX",
"@@.XXoXoXXXXXXXX@@.XXXXXXoXXXXXX",
"@@.XXXXXoXXXXXXX@@.XXXXXXXXXXXXX",
"@@.XXXXXXXX.XXXX@@.XX.XXXXXXXX..",
"@@..XXXXXXX...X.@@......XXXXX...",
"@@..XXXX.X....X.@@......XXX.....",
"@@@.....X.......@@@.......X.....",
"@@@..X.X...@.@..@@@.@.@..X...@.@",
"@@@........@@@.@@@@@@@@......@@@",
"@@@@......@@@.@@@@@@@@@@....@@@@",
"@@@@......@@@@@@@@@@@@@@....@@@@",
"@@@@.....@@@@@@@@@@@@@@@...@@@@@",
"@@@@@@.@.@@@@@@@@@@@@@@@@@.@@@@@",
"@@@@@....@@@@@@@@@@@@@@@@..@@@@@",
"@@@@@@.@.@@@@@@@@@@@@@@@@@.@@@@@",
"@@@@@@@@@@@@@@@@@@@@@@@@@@@@@@@@",
"@@@@@.@.@@@@@@@@@@@@@@@@@.@@@@@@",
"@@@@@@@.@@@@@@@@@@@@@@@@@@@@@@@@",
"@@@@@@@@@@@@@@@@@@@@@@@@@@@@@@@@",
"@@@@@@@@@@@@@@@@@@@@@@@@@@@@@@@@",
"@@@@@@@@@@@@@@@@@@@@@@@@@@@@@@@@"
};
